<svg version="1.1" xmlns="http://www.w3.org/2000/svg" viewBox="0 0 1306.840685565122 537.9351718823688" width="2613.681371130244" height="1075.8703437647375" filter="invert(93%) hue-rotate(180deg)">
    <!-- svg-source:excalidraw -->

    <defs>
        <style class="style-fonts">
            @font-face {
            font-family: "Virgil";
            src: url("https://excalidraw.com/Virgil.woff2");
            }
            @font-face {
            font-family: "Cascadia";
            src: url("https://excalidraw.com/Cascadia.woff2");
            }
            @font-face {
            font-family: "Assistant";
            src: url("https://excalidraw.com/Assistant-Regular.woff2");
            }
        </style>

    </defs>
    <rect x="0" y="0" width="1306.840685565122" height="537.9351718823688" fill="#ffffff"></rect><g stroke-linecap="round" transform="translate(144.77120508394097 135.54845313236876) rotate(0 82.388671875 41.123046875)"><path d="M20.56 0 C61.62 1.65, 104.4 2.54, 144.22 0 M20.56 0 C66.25 -1.1, 112.78 -0.4, 144.22 0 M144.22 0 C158.26 0.94, 164.86 7.12, 164.78 20.56 M144.22 0 C157.76 -1.11, 165.09 6.65, 164.78 20.56 M164.78 20.56 C165.79 35.37, 166.47 46.08, 164.78 61.68 M164.78 20.56 C165.78 29.24, 165.45 39.31, 164.78 61.68 M164.78 61.68 C163.76 75.84, 157.81 83.58, 144.22 82.25 M164.78 61.68 C165.5 75.15, 156.75 83.88, 144.22 82.25 M144.22 82.25 C116.5 83.05, 89.63 80.76, 20.56 82.25 M144.22 82.25 C117.43 81.17, 92.09 81.08, 20.56 82.25 M20.56 82.25 C8.3 80.55, -1.69 75.6, 0 61.68 M20.56 82.25 C9.12 82.31, -1.11 77.53, 0 61.68 M0 61.68 C-0.08 51.89, 0.82 40.99, 0 20.56 M0 61.68 C-0.42 52.47, -0.54 44, 0 20.56 M0 20.56 C-0.51 6.85, 5.28 -0.44, 20.56 0 M0 20.56 C0.94 4.73, 6.6 -0.6, 20.56 0" stroke="#1e1e1e" stroke-width="2" fill="none"></path></g><g transform="translate(179.98992456636284 164.17150000736876) rotate(0 47.169952392578125 12.5)"><text x="47.169952392578125" y="17.52" font-family="Virgil, Segoe UI Emoji" font-size="20px" fill="#1e1e1e" text-anchor="middle" style="white-space: pre;" direction="ltr" dominant-baseline="alphabetic">Controller</text></g><g stroke-linecap="round" transform="translate(144.77120508394097 288.70079688236876) rotate(0 84.1015625 42.3671875)"><path d="M21.18 0 C58.63 2.24, 96.72 1.78, 147.02 0 M21.18 0 C47.68 -0.7, 74.34 0.14, 147.02 0 M147.02 0 C163.08 1.99, 169.88 7.55, 168.2 21.18 M147.02 0 C162.91 0.05, 167.89 8.66, 168.2 21.18 M168.2 21.18 C168.78 27.97, 169.12 38.95, 168.2 63.55 M168.2 21.18 C167.6 37.06, 167.78 55.73, 168.2 63.55 M168.2 63.55 C166.58 79.37, 159.9 84.61, 147.02 84.73 M168.2 63.55 C166.13 78.47, 161.56 85.48, 147.02 84.73 M147.02 84.73 C100.46 84.64, 51.26 86.47, 21.18 84.73 M147.02 84.73 C109.57 83.5, 73.12 83.24, 21.18 84.73 M21.18 84.73 C7 84.48, 1.24 76.81, 0 63.55 M21.18 84.73 C8.32 83.11, -1.91 77.29, 0 63.55 M0 63.55 C-2.21 52.13, 1 38.67, 0 21.18 M0 63.55 C-0.61 52.69, -0.23 40.54, 0 21.18 M0 21.18 C-0.51 7.49, 6.13 -1.08, 21.18 0 M0 21.18 C2.13 6.11, 8.8 -1, 21.18 0" stroke="#1e1e1e" stroke-width="2" fill="none"></path></g><g transform="translate(182.96280969819878 318.56798438236876) rotate(0 45.90995788574219 12.5)"><text x="45.90995788574219" y="17.52" font-family="Virgil, Segoe UI Emoji" font-size="20px" fill="#1e1e1e" text-anchor="middle" style="white-space: pre;" direction="ltr" dominant-baseline="alphabetic">ViewModel</text></g><g stroke-linecap="round" transform="translate(150.40792383394097 443.18517188236876) rotate(0 79.90234375 42.375)"><path d="M21.19 0 C65.24 -0.94, 113.93 0.81, 138.62 0 M21.19 0 C46.64 0.51, 73.06 -0.32, 138.62 0 M138.62 0 C152.43 0.93, 158.38 6.97, 159.8 21.19 M138.62 0 C150.89 -0.17, 160.97 4.82, 159.8 21.19 M159.8 21.19 C158.58 30.56, 157.97 42.14, 159.8 63.56 M159.8 21.19 C160.05 31.56, 159.74 42.99, 159.8 63.56 M159.8 63.56 C158.74 79.05, 151.03 85.43, 138.62 84.75 M159.8 63.56 C157.77 79.88, 151.57 83.82, 138.62 84.75 M138.62 84.75 C103.78 85.07, 66.6 83.73, 21.19 84.75 M138.62 84.75 C103.32 83.45, 69.96 83.83, 21.19 84.75 M21.19 84.75 C8.6 85.57, 1.7 78.32, 0 63.56 M21.19 84.75 C7.43 84.16, 1.86 79.67, 0 63.56 M0 63.56 C-0.43 51.52, -0.44 36.57, 0 21.19 M0 63.56 C-0.14 48.11, 0.93 33.51, 0 21.19 M0 21.19 C-1.45 8.02, 5.92 1.89, 21.19 0 M0 21.19 C-2.04 6.67, 7.76 0.11, 21.19 0" stroke="#1e1e1e" stroke-width="2" fill="none"></path></g><g transform="translate(177.38030542573784 473.06017188236876) rotate(0 52.929962158203125 12.5)"><text x="52.929962158203125" y="17.52" font-family="Virgil, Segoe UI Emoji" font-size="20px" fill="#1e1e1e" text-anchor="middle" style="white-space: pre;" direction="ltr" dominant-baseline="alphabetic">Razor View</text></g><g stroke-linecap="round" transform="translate(425.10714258394097 129.20470313236876) rotate(0 237.177734375 192.232421875)"><path d="M0 0 C122.34 -2.14, 244.48 -1.82, 474.36 0 M0 0 C148.27 -1.28, 297.21 -0.94, 474.36 0 M474.36 0 C471.92 121.02, 472.51 240.39, 474.36 384.46 M474.36 0 C477.05 138.35, 476.37 275.9, 474.36 384.46 M474.36 384.46 C313.88 383.96, 153.22 383.36, 0 384.46 M474.36 384.46 C348.33 384.05, 223.32 383.36, 0 384.46 M0 384.46 C0.44 286, -0.26 186.57, 0 0 M0 384.46 C-0.42 266.45, -0.69 150.1, 0 0" stroke="#1e1e1e" stroke-width="2" fill="none"></path></g><g stroke-linecap="round" transform="translate(468.36886133394097 341.75548438236876) rotate(0 107.41796875 30)"><path d="M0 0 C70.9 0.71, 143.21 1.29, 214.84 0 M0 0 C66.15 1.43, 133.6 1.76, 214.84 0 M214.84 0 C215.36 22.92, 215.84 45.87, 214.84 60 M214.84 0 C214.29 17.74, 214.11 35.44, 214.84 60 M214.84 60 C145.97 60.94, 76.51 61.51, 0 60 M214.84 60 C163.52 59.18, 111.66 59.62, 0 60 M0 60 C-1.38 47.42, 0.13 30.36, 0 0 M0 60 C0.63 40.75, -0.59 20.9, 0 0" stroke="#1e1e1e" stroke-width="2" fill="none"></path></g><g transform="translate(510.4268828793511 346.75548438236876) rotate(0 65.35994720458984 25)"><text x="65.35994720458984" y="17.52" font-family="Virgil, Segoe UI Emoji" font-size="20px" fill="#1e1e1e" text-anchor="middle" style="white-space: pre;" direction="ltr" dominant-baseline="alphabetic">Vue Context </text><text x="65.35994720458984" y="42.519999999999996" font-family="Virgil, Segoe UI Emoji" font-size="20px" fill="#1e1e1e" text-anchor="middle" style="white-space: pre;" direction="ltr" dominant-baseline="alphabetic">provider</text></g><g stroke-linecap="round"><g transform="translate(316.76339258394097 489.4522018870007) rotate(0 51.005859375 -112.5690739048685)"><path d="M-0.21 0.48 C9.92 0.24, 51.16 33.31, 61.53 -0.83 C71.9 -34.97, 55.3 -167.05, 62.01 -204.36 C68.72 -241.66, 95.21 -221.05, 101.79 -224.67 M-1.78 -0.32 C8.19 -0.49, 50.48 33.91, 61.02 0.13 C71.55 -33.65, 54.6 -165.18, 61.42 -203.01 C68.24 -240.83, 94.92 -223, 101.92 -226.84" stroke="#1e1e1e" stroke-width="2" fill="none"></path></g><g transform="translate(316.76339258394097 489.4522018870007) rotate(0 51.005859375 -112.5690739048685)"><path d="M80.33 -219.69 C88.94 -220.88, 94.15 -224.3, 101.92 -226.84 M80.33 -219.69 C86.5 -222.56, 94.32 -225.04, 101.92 -226.84" stroke="#1e1e1e" stroke-width="2" fill="none"></path></g><g transform="translate(316.76339258394097 489.4522018870007) rotate(0 51.005859375 -112.5690739048685)"><path d="M80.79 -235.24 C89.31 -230.78, 94.34 -228.54, 101.92 -226.84 M80.79 -235.24 C86.79 -233.36, 94.47 -231.1, 101.92 -226.84" stroke="#1e1e1e" stroke-width="2" fill="none"></path></g></g><mask></mask><g stroke-linecap="round"><g transform="translate(225.57198633394097 222.40001563236876) rotate(0 0.451171875 28.607421875)"><path d="M0.95 -0.56 C1.32 8.89, 1.09 48.13, 1.16 57.84 M-0.01 1.76 C0.31 11.37, 0.21 47.07, 0.34 56.04" stroke="#1e1e1e" stroke-width="2" fill="none"></path></g><g transform="translate(225.57198633394097 222.40001563236876) rotate(0 0.451171875 28.607421875)"><path d="M-8.33 32.6 C-7.21 37.93, -3.39 43.2, 0.34 56.04 M-8.33 32.6 C-5.9 41.36, -1.54 49.45, 0.34 56.04" stroke="#1e1e1e" stroke-width="2" fill="none"></path></g><g transform="translate(225.57198633394097 222.40001563236876) rotate(0 0.451171875 28.607421875)"><path d="M8.77 32.51 C6.27 37.99, 6.46 43.28, 0.34 56.04 M8.77 32.51 C5.38 41.25, 3.93 49.37, 0.34 56.04" stroke="#1e1e1e" stroke-width="2" fill="none"></path></g></g><mask></mask><g stroke-linecap="round"><g transform="translate(229.81786620098677 438.9312656323688) rotate(0 -0.11115973040170957 -28.99414062500003)"><path d="M-1.04 -0.19 C-1.18 -9.89, -0.35 -47.96, -0.06 -57.77 M0.62 -1.33 C0.26 -11.46, -0.89 -50.29, -0.93 -59.77" stroke="#1e1e1e" stroke-width="2" fill="none"></path></g><g transform="translate(229.81786620098677 438.9312656323688) rotate(0 -0.11115973040170957 -28.99414062500003)"><path d="M8.07 -36.45 C4.37 -44.8, 1.76 -52.12, -0.93 -59.77 M8.07 -36.45 C6.47 -41.49, 4.25 -47.32, -0.93 -59.77" stroke="#1e1e1e" stroke-width="2" fill="none"></path></g><g transform="translate(229.81786620098677 438.9312656323688) rotate(0 -0.11115973040170957 -28.99414062500003)"><path d="M-9.03 -36.12 C-6.46 -44.45, -2.81 -51.89, -0.93 -59.77 M-9.03 -36.12 C-6.95 -41.26, -5.5 -47.16, -0.93 -59.77" stroke="#1e1e1e" stroke-width="2" fill="none"></path></g></g><mask></mask><g transform="translate(461.86886133394097 209.84532813236876) rotate(0 201.5625 28.80000000000001)"><text x="0" y="15.45" font-family="Cascadia, Segoe UI Emoji" font-size="16px" fill="#1e1e1e" text-anchor="start" style="white-space: pre;" direction="ltr" dominant-baseline="alphabetic">&lt;context-provider :model="@Model.ToJson()"&gt;</text><text x="0" y="34.65" font-family="Cascadia, Segoe UI Emoji" font-size="16px" fill="#1e1e1e" text-anchor="start" style="white-space: pre;" direction="ltr" dominant-baseline="alphabetic">    &lt;vue-page-component /&gt;</text><text x="0" y="53.849999999999994" font-family="Cascadia, Segoe UI Emoji" font-size="16px" fill="#1e1e1e" text-anchor="start" style="white-space: pre;" direction="ltr" dominant-baseline="alphabetic">&lt;/context-provider&gt;</text></g><g stroke-opacity="0.7" fill-opacity="0.7" transform="translate(461.18526758394097 145.34532813236876) rotate(0 145.3125 9.599999999999994)"><text x="0" y="15.45" font-family="Cascadia, Segoe UI Emoji" font-size="16px" fill="#1e1e1e" text-anchor="start" style="white-space: pre;" direction="ltr" dominant-baseline="alphabetic">@model App.ViewModels.[vm-name]</text></g><g stroke-opacity="0.7" fill-opacity="0.7" stroke-linecap="round" transform="translate(987.9821425839409 143.77110938236876) rotate(0 56.533203125 29.94140625)"><path d="M14.97 0 C38.54 1.64, 64.5 -1.31, 98.1 0 M98.1 0 C109.08 -0.68, 113.92 3.86, 113.07 14.97 M113.07 14.97 C113.08 23.79, 111.78 31.84, 113.07 44.91 M113.07 44.91 C111.07 54.66, 109.39 58.85, 98.1 59.88 M98.1 59.88 C81.33 59.15, 61.52 60.72, 14.97 59.88 M14.97 59.88 C3.47 59.02, 0.81 53.15, 0 44.91 M0 44.91 C0.28 37.78, 0.62 29.72, 0 14.97 M0 14.97 C1.7 6.38, 3.06 -0.04, 14.97 0" stroke="#1e1e1e" stroke-width="2.5" fill="none" stroke-dasharray="8 10"></path></g><g transform="translate(1009.1853820248589 161.21251563236876) rotate(0 35.32996368408203 12.5)"><text x="35.32996368408203" y="17.52" font-family="Virgil, Segoe UI Emoji" font-size="20px" fill="#1e1e1e" text-anchor="middle" style="white-space: pre;" direction="ltr" dominant-baseline="alphabetic">renders</text></g><g stroke-linecap="round"><g transform="translate(908.0055800839409 172.21642188236876) rotate(0 34.83203125 0)"><path d="M0.42 -0.7 C11.87 -0.58, 57.35 -0.06, 68.85 0.06 M-0.82 1.55 C10.99 1.93, 59.57 1.67, 71.13 1.63" stroke="#1e1e1e" stroke-width="2" fill="none"></path></g><g transform="translate(908.0055800839409 172.21642188236876) rotate(0 34.83203125 0)"><path d="M47.67 10.27 C53.92 6.12, 62.53 4.38, 71.13 1.63 M47.67 10.27 C55.37 7.05, 61.26 5.65, 71.13 1.63" stroke="#1e1e1e" stroke-width="2" fill="none"></path></g><g transform="translate(908.0055800839409 172.21642188236876) rotate(0 34.83203125 0)"><path d="M47.6 -6.83 C53.78 -5.62, 62.42 -1.99, 71.13 1.63 M47.6 -6.83 C55.2 -4.94, 61.11 -1.23, 71.13 1.63" stroke="#1e1e1e" stroke-width="2" fill="none"></path></g></g><mask></mask><g stroke-linecap="round" transform="translate(993.5329238339409 261.51329688236876) rotate(0 77.556640625 39.98828125)"><path d="M19.99 0 C51.06 -0.26, 78.4 0.5, 135.12 0 M19.99 0 C47.61 -0.22, 73.38 -0.01, 135.12 0 M135.12 0 C150.35 -0.55, 157 7.08, 155.11 19.99 M135.12 0 C149.65 -1.22, 155.53 8.31, 155.11 19.99 M155.11 19.99 C153.29 29.72, 153.71 39.87, 155.11 59.98 M155.11 19.99 C155.11 33.86, 155.07 47.8, 155.11 59.98 M155.11 59.98 C154.6 71.62, 146.64 78.66, 135.12 79.98 M155.11 59.98 C155.9 74.1, 148 79.15, 135.12 79.98 M135.12 79.98 C95.31 81.16, 54.76 77.67, 19.99 79.98 M135.12 79.98 C108.59 80.47, 79.98 81.82, 19.99 79.98 M19.99 79.98 C5.13 78.7, 0.97 75.26, 0 59.98 M19.99 79.98 C4.95 81.86, -1.06 74.03, 0 59.98 M0 59.98 C-0.23 45.06, 0.11 32.25, 0 19.99 M0 59.98 C0.72 52.13, 0.52 42.56, 0 19.99 M0 19.99 C0.05 8.2, 7.89 1.73, 19.99 0 M0 19.99 C2.16 4.85, 5.56 -0.39, 19.99 0" stroke="#1e1e1e" stroke-width="2" fill="none"></path></g><g transform="translate(1054.7695800229058 289.00157813236876) rotate(0 16.319984436035156 12.5)"><text x="16.319984436035156" y="17.52" font-family="Virgil, Segoe UI Emoji" font-size="20px" fill="#1e1e1e" text-anchor="middle" style="white-space: pre;" direction="ltr" dominant-baseline="alphabetic">Vue</text></g><g stroke-linecap="round" transform="translate(996.0524550839409 414.37267188236876) rotate(0 77.453125 39.71484375)"><path d="M19.86 0 C62.82 -0.56, 105.77 -0.46, 135.05 0 M19.86 0 C45.28 0.22, 73.23 -0.3, 135.05 0 M135.05 0 C147.97 1.29, 154.49 7.05, 154.91 19.86 M135.05 0 C146.83 1.32, 154.88 5.42, 154.91 19.86 M154.91 19.86 C154.3 29.75, 155.59 40, 154.91 59.57 M154.91 19.86 C155.97 31.73, 155.53 45.44, 154.91 59.57 M154.91 59.57 C154.03 72.26, 149.18 78.27, 135.05 79.43 M154.91 59.57 C155.05 70.7, 147.97 79.65, 135.05 79.43 M135.05 79.43 C90.39 82.35, 49.58 79.28, 19.86 79.43 M135.05 79.43 C111.4 79.06, 89.16 79.34, 19.86 79.43 M19.86 79.43 C5.08 79.97, 1.59 71.39, 0 59.57 M19.86 79.43 C8.53 78.01, 1.09 73.68, 0 59.57 M0 59.57 C0.86 46.66, -1.59 32.18, 0 19.86 M0 59.57 C-0.26 45.29, -0.83 32.25, 0 19.86 M0 19.86 C0.56 6.39, 5.33 -0.26, 19.86 0 M0 19.86 C1.14 7.13, 4.73 -2.15, 19.86 0" stroke="#1e1e1e" stroke-width="2" fill="none"></path></g><g transform="translate(1026.1356307431206 441.58751563236876) rotate(0 47.36994934082031 12.5)"><text x="47.36994934082031" y="17.52" font-family="Virgil, Segoe UI Emoji" font-size="20px" fill="#1e1e1e" text-anchor="middle" style="white-space: pre;" direction="ltr" dominant-baseline="alphabetic">Presenter</text></g><g stroke-linecap="round"><g stroke-opacity="0.8" fill-opacity="0.8" transform="translate(692.2516738339409 369.5892451329734) rotate(0 149.03125 42.935470208742004)"><path d="M-0.27 -1.37 C39.17 -0.22, 193.29 -5.91, 235.69 6.99 C278.08 19.88, 243.53 62.89, 254.12 75.99 C264.71 89.1, 292.1 83.72, 299.23 85.63" stroke="#1e1e1e" stroke-width="2.5" fill="none" stroke-dasharray="8 10"></path></g><g stroke-opacity="0.8" fill-opacity="0.8" transform="translate(692.2516738339409 369.5892451329734) rotate(0 149.03125 42.935470208742004)"><path d="M-0.43 -2.6 L14.66 -8.52 L11.7 3.36 L0.46 -0.64" stroke="none" stroke-width="0" fill="#1e1e1e" fill-rule="evenodd"></path><path d="M-0.27 -1.37 C2.08 -1.49, 5.81 -3.17, 13.37 -7.62 M13.37 -7.62 C12.22 -3.74, 13.77 -1.6, 13.29 5.06 M13.29 5.06 C8.35 2.62, 2.64 1.86, -0.27 -1.37 M-0.27 -1.37 C-0.27 -1.37, -0.27 -1.37, -0.27 -1.37" stroke="#1e1e1e" stroke-width="2.5" fill="none"></path></g></g><mask></mask><g stroke-linecap="round"><g transform="translate(1046.767298833941 209.54454688236876) rotate(0 0.310546875 22.41015625)"><path d="M-0.28 0.09 C-0.04 7.42, 0.68 37.01, 0.91 44.55" stroke="#1e1e1e" stroke-width="2.5" fill="none" stroke-dasharray="8 10"></path></g><g transform="translate(1046.767298833941 209.54454688236876) rotate(0 0.310546875 22.41015625)"><path d="M-7.33 23.7 C-5.39 28.5, -4.36 33.12, 0.91 44.55" stroke="#1e1e1e" stroke-width="2.5" fill="none"></path></g><g transform="translate(1046.767298833941 209.54454688236876) rotate(0 0.310546875 22.41015625)"><path d="M8 23.28 C6.81 28.13, 4.7 32.83, 0.91 44.55" stroke="#1e1e1e" stroke-width="2.5" fill="none"></path></g></g><mask></mask><g stroke-linecap="round"><g transform="translate(1057.571986333941 348.93907813236876) rotate(0 0.28515625 28.8671875)"><path d="M0.65 0.36 C0.91 9.73, 1.42 47.46, 1.57 56.87 M-0.47 -0.5 C-0.28 8.94, 0.85 48.26, 1.15 57.96" stroke="#1e1e1e" stroke-width="2" fill="none"></path></g><g transform="translate(1057.571986333941 348.93907813236876) rotate(0 0.28515625 28.8671875)"><path d="M-8.09 34.73 C-4.6 43.33, -3.85 50.31, 1.15 57.96 M-8.09 34.73 C-5.86 39.35, -3.55 45.36, 1.15 57.96" stroke="#1e1e1e" stroke-width="2" fill="none"></path></g><g transform="translate(1057.571986333941 348.93907813236876) rotate(0 0.28515625 28.8671875)"><path d="M9 34.22 C7.36 43.07, 2.98 50.2, 1.15 57.96 M9 34.22 C7.38 39.08, 5.84 45.2, 1.15 57.96" stroke="#1e1e1e" stroke-width="2" fill="none"></path></g></g><mask></mask><g stroke-linecap="round"><g transform="translate(1095.517298833941 410.12267188236876) rotate(0 -1.072265625 -31.552734375)"><path d="M-0.19 1.04 C-0.37 -9.54, -1.77 -51.66, -2.15 -62.54 M-1.75 0.54 C-1.99 -10.48, -2.83 -53.69, -3.1 -64.36" stroke="#1e1e1e" stroke-width="2" fill="none"></path></g><g transform="translate(1095.517298833941 410.12267188236876) rotate(0 -1.072265625 -31.552734375)"><path d="M5.96 -41.06 C5.63 -45.91, 2.97 -51.23, -3.1 -64.36 M5.96 -41.06 C3.01 -45.28, 1.99 -50.07, -3.1 -64.36" stroke="#1e1e1e" stroke-width="2" fill="none"></path></g><g transform="translate(1095.517298833941 410.12267188236876) rotate(0 -1.072265625 -31.552734375)"><path d="M-11.13 -40.69 C-7.92 -45.59, -7.05 -50.98, -3.1 -64.36 M-11.13 -40.69 C-10.53 -45.04, -7.99 -49.91, -3.1 -64.36" stroke="#1e1e1e" stroke-width="2" fill="none"></path></g></g><mask></mask><g mask="url(#mask-gNp0QJlNEJo2YurSAWw06)" stroke-linecap="round"><g stroke-opacity="0.8" fill-opacity="0.8" transform="translate(1160.8438172951417 452.536947581719) rotate(0 -436.002132032914 -208.7684737908595)"><path d="M0 0 C15.71 -0.39, 31.41 -0.78, 65.73 -1.64 M0 0 C19.15 -0.48, 38.31 -0.95, 65.73 -1.64 M65.73 -1.64 C65.52 -113.6, 65.3 -225.56, 64.94 -417.54 M65.73 -1.64 C65.41 -167.67, 65.1 -333.7, 64.94 -417.54 M64.94 -417.54 C-230.47 -417.51, -525.88 -417.49, -937.73 -417.45 M64.94 -417.54 C-289.39 -417.51, -643.72 -417.48, -937.73 -417.45 M-937.73 -417.45 C-937.73 -384.24, -937.73 -351.04, -937.73 -327.98 M-937.73 -417.45 C-937.73 -395.98, -937.73 -374.51, -937.73 -327.98" stroke="#1e1e1e" stroke-width="2" fill="none"></path></g><g stroke-opacity="0.8" fill-opacity="0.8" transform="translate(1160.8438172951417 452.536947581719) rotate(0 -436.002132032914 -208.7684737908595)"><path d="M-946.28 -351.47 C-944.24 -345.85, -942.2 -340.24, -937.73 -327.98 M-946.28 -351.47 C-943.79 -344.62, -941.3 -337.78, -937.73 -327.98" stroke="#1e1e1e" stroke-width="2" fill="none"></path></g><g stroke-opacity="0.8" fill-opacity="0.8" transform="translate(1160.8438172951417 452.536947581719) rotate(0 -436.002132032914 -208.7684737908595)"><path d="M-929.18 -351.47 C-931.23 -345.85, -933.27 -340.24, -937.73 -327.98 M-929.18 -351.47 C-931.67 -344.62, -934.17 -337.78, -937.73 -327.98" stroke="#1e1e1e" stroke-width="2" fill="none"></path></g></g><mask id="mask-gNp0QJlNEJo2YurSAWw06"><rect x="0" y="0" fill="#fff" width="2264.3079802404636" height="970.073895163438"></rect><rect x="1154.720797259458" y="10" fill="#000" width="142.11988830566406" height="50" opacity="1"></rect></mask><g stroke-opacity="0.8" fill-opacity="0.8" transform="translate(1154.720797259458 10) rotate(0 -429.8791119972302 233.7684737908595)"><text x="71.05994415283203" y="17.52" font-family="Virgil, Segoe UI Emoji" font-size="20px" fill="#1e1e1e" text-anchor="middle" style="white-space: pre;" direction="ltr" dominant-baseline="alphabetic">Post back to </text><text x="71.05994415283203" y="42.519999999999996" font-family="Virgil, Segoe UI Emoji" font-size="20px" fill="#1e1e1e" text-anchor="middle" style="white-space: pre;" direction="ltr" dominant-baseline="alphabetic">controller</text></g><g stroke-opacity="0.8" fill-opacity="0.8" stroke-linecap="round" transform="translate(10 154.66934422683693) rotate(0 25.183111609299857 25.37908913155121)"><path d="M36.94 2.7 C41.73 4.62, 46.83 10.27, 48.83 15.16 C50.83 20.05, 50.45 26.67, 48.93 32.05 C47.42 37.43, 44.12 44.39, 39.74 47.43 C35.35 50.47, 28.17 51.01, 22.63 50.31 C17.08 49.61, 10.26 47.32, 6.49 43.24 C2.71 39.17, 0.22 31.28, -0.02 25.84 C-0.26 20.4, 1.81 14.9, 5.04 10.6 C8.27 6.3, 13.98 1.29, 19.35 0.05 C24.71 -1.19, 34.15 2.47, 37.23 3.18 C40.3 3.88, 37.84 4.04, 37.8 4.26 M35.9 1.45 C40.38 3.61, 45.53 10.77, 47.73 16.04 C49.94 21.3, 50.54 27.88, 49.12 33.04 C47.7 38.21, 43.64 44.18, 39.19 47.02 C34.73 49.85, 27.73 50.85, 22.4 50.02 C17.06 49.2, 11.14 46.11, 7.2 42.08 C3.25 38.05, -0.96 31.31, -1.27 25.84 C-1.57 20.38, 2.06 13.26, 5.37 9.3 C8.69 5.35, 13.5 3.44, 18.61 2.11 C23.73 0.78, 33 1.01, 36.04 1.33 C39.09 1.64, 36.92 3.19, 36.88 4" stroke="#1e1e1e" stroke-width="2" fill="none"></path></g><g stroke-linecap="round"><g stroke-opacity="0.8" fill-opacity="0.8" transform="translate(66.5509092115089 180.8893136573504) rotate(0 34.63788765372888 -0.41018551168889417)"><path d="M0 0 C22.08 0.99, 47.22 1.06, 69.28 -0.82 M0 0 C21.05 -1.25, 41.96 -0.89, 69.28 -0.82" stroke="#1e1e1e" stroke-width="2" fill="none"></path></g><g stroke-opacity="0.8" fill-opacity="0.8" transform="translate(66.5509092115089 180.8893136573504) rotate(0 34.63788765372888 -0.41018551168889417)"><path d="M45.75 7.64 C52.02 5.9, 61.38 3.33, 69.28 -0.82 M45.75 7.64 C52.93 4.4, 60.06 2.46, 69.28 -0.82" stroke="#1e1e1e" stroke-width="2" fill="none"></path></g><g stroke-opacity="0.8" fill-opacity="0.8" transform="translate(66.5509092115089 180.8893136573504) rotate(0 34.63788765372888 -0.41018551168889417)"><path d="M45.82 -9.46 C52.15 -5.31, 61.49 -1.97, 69.28 -0.82 M45.82 -9.46 C53.14 -7.54, 60.25 -4.33, 69.28 -0.82" stroke="#1e1e1e" stroke-width="2" fill="none"></path></g></g><mask></mask></svg>